<?xml version="1.0" encoding="UTF-8"?>
<svg width="157px" height="60px" viewBox="0 0 157 60" version="1.1" xmlns="http://www.w3.org/2000/svg" xmlns:xlink="http://www.w3.org/1999/xlink">
    <!-- Generator: Sketch 53.2 (72643) - https://sketchapp.com -->
    <title>bd-logo</title>
    <desc>Created with Sketch.</desc>
    <g id="Page-1" stroke="none" stroke-width="1" fill="none" fill-rule="evenodd">
        <g id="Step-1-Desktop_email-error" transform="translate(-1043.000000, -32.000000)" fill="#FEFEFE">
            <g id="Group-5" transform="translate(802.000000, 0.000000)">
                <g id="bd-logo" transform="translate(241.000000, 32.000000)">
                    <path d="M147.755858,39.4004639 L146.761338,39.4004639 L146.761338,41.782054 C146.761338,41.9020983 146.660431,42 146.510015,42 C146.35582,42 146.249433,41.9020983 146.249433,41.782054 L146.249433,39.4004639 L145.245843,39.4004639 C145.111867,39.4004639 145,39.3114192 145,39.2046605 C145,39.0887284 145.106387,39 145.245843,39 L147.755858,39 C147.893424,39 148,39.0887284 148,39.2046605 C148,39.3114192 147.887944,39.4004639 147.755858,39.4004639" id="Fill-1"></path>
                    <path d="M149.613065,39.1273902 C149.652446,39.0481426 149.705579,39 149.801219,39 C149.916549,39 150,39.0701818 150,39.198041 L150,41.7975825 C150,41.9074663 149.925613,42 149.801219,42 C149.673699,42 149.599469,41.9074663 149.599469,41.7975825 L149.599469,40.0161517 L148.684482,41.8768301 C148.649476,41.9515448 148.596343,42 148.499297,42 C148.403657,42 148.350524,41.9515448 148.315674,41.8768301 L147.400688,40.0161517 L147.400688,41.7975825 C147.400688,41.9074663 147.326301,42 147.198781,42 C147.074387,42 147,41.9074663 147,41.7975825 L147,39.198041 C147,39.0701818 147.083451,39 147.198781,39 C147.294421,39 147.347554,39.0481426 147.386935,39.1273902 L148.499297,41.41041 L149.613065,39.1273902 Z" id="Fill-3"></path>
                    <path d="M125.702663,13.3512682 C125.371905,15.5246575 123.717742,22.5776194 127.047546,19.0090986 C132.11705,13.5868301 132.090904,9.38614853 128.218365,10.0738992 C126.609586,10.3617504 125.702663,13.3512682 125.702663,13.3512682" id="Fill-5"></path>
                    <path d="M52.7548466,59.0947891 L51.8904157,59.0947891 C51.5130198,59.0947891 51.1303265,58.8527222 51.092924,58.2095461 C51.046532,56.9848489 51.0113769,50.9060283 51.092924,49.661013 C51.1303265,49.2071814 51.3383678,48.8826157 51.8904157,48.8826157 L52.7715413,48.8826157 C55.7444774,48.8826157 56.6779344,50.2013721 56.6779344,53.8758137 C56.6779344,57.9865713 55.5560202,59.0947891 52.7548466,59.0947891 M52.9779774,48.0113852 C52.9779774,48.0113852 50.8356013,48.0325792 50.053199,48.0325792 C49.2266521,48.0325792 47.2735358,48 47,48 L47,49.0216903 L48.1063432,49.0216903 C48.7274171,49.0216903 48.9657978,49.1908918 49.0036819,49.8678733 C49.0547291,50.9060283 49.0547291,56.9848489 49.0036819,58.2272369 C48.9847399,58.8364326 48.776217,58.9404758 47.9833805,58.9404758 L47,58.9404758 L47,60 C47,60 49.2266521,59.9672457 49.9917176,59.9672457 L52.9779774,59.9672457 C56.350462,59.9672457 59.0500228,58.401518 58.9992967,53.8921033 C58.9435942,49.8528098 57.1294932,48.0113852 52.9779774,48.0113852" id="Fill-7"></path>
                    <path d="M69.9303786,58.9194748 L67.3143027,58.9194748 C66.798095,58.9194748 66.3995861,58.675256 66.3618273,58.0238903 C66.3257693,57.5326795 66.3050189,55.9521038 66.3050189,54.3183164 L67.1629272,54.3183164 C68.9401443,54.3183164 69.5828951,54.9509627 69.6199736,56.4284084 L69.6199736,56.6357084 L70.5894576,56.6357084 C70.5346902,55.7623099 70.5346902,55.159476 70.5346902,53.8940101 C70.5346902,52.6373839 70.5714286,52.2465298 70.5894576,51.2504153 L69.5828951,51.2504153 L69.5828951,51.5046871 C69.5828951,53.0504239 68.8188738,53.4970895 67.2241577,53.4970895 L66.3050189,53.4970895 C66.3050189,51.9189404 66.3257693,50.4265885 66.3618273,49.9577369 C66.3995861,49.480219 66.615594,49.1562694 67.2241577,49.1562694 L69.969328,49.1562694 C72.1673352,49.1562694 72.8270945,49.8225413 72.8270945,52.3123944 L73.8185194,52.3123944 C73.7967485,51.0717144 73.8185194,49.2555862 73.9287344,48 C73.0631724,48.1045166 70.920783,48.1045166 70.1383924,48.1045166 C67.56926,48.1045166 65.5576659,48.1254893 65.2026987,48.1254893 C64.8596374,48.1254893 62.2922059,48.0932503 62,48.0932503 L62,49.1042711 L63.1535158,49.1042711 C63.8119144,49.1042711 64.0505436,49.2878252 64.1042904,49.9577369 C64.1801483,50.9687577 64.1801483,56.9482183 64.1042904,57.889908 C64.0505436,58.4927419 63.8699134,58.9194748 63.0230607,58.9194748 L62,58.9194748 L62,59.9679344 C62,59.9679344 64.2539651,59.9355221 65.115105,59.9355221 L70.3697079,59.9355221 C71.159242,59.9355221 72.954318,59.9355221 73.8185194,60 C73.8185194,58.5237676 73.8673338,56.670374 74,55.4050814 L72.8837328,55.4050814 C72.8837328,57.8379097 72.2258444,58.9194748 69.9303786,58.9194748" id="Fill-9"></path>
                    <path d="M80.3590169,55.3723289 C81.0202704,53.5346287 81.9585378,50.9698346 82.4438763,49.7521087 C82.9516274,50.9698346 83.9226269,53.5346287 84.6001658,55.3723289 C83.4034275,55.3909055 81.5944533,55.3909055 80.3590169,55.3723289 M87.7085896,57.5383324 C87.255177,56.5266859 84.6301569,50.0255501 83.9377836,48 C83.9377836,48 83.3128095,48.0484382 82.9666229,48.0484382 C82.6243061,48.0484382 81.9757907,48 81.9757907,48 C81.2487504,50.0092305 78.8518877,56.4721712 78.4323359,57.5234017 C78.0163315,58.5695974 77.61758,58.9498112 76.6446456,58.9498112 L76,58.9498112 L76,60 C76,60 77.7248059,59.9675343 78.6787137,59.9675343 C79.6266556,59.9675343 81.3527515,60 81.3527515,60 L81.368392,58.9498112 L80.6266786,58.9498112 C79.4889549,58.9498112 79.3889849,58.2975448 79.6834128,57.3369406 C79.7358165,57.1456184 79.876097,56.7504738 80.0491097,56.2695641 C81.368392,56.2310219 83.6589962,56.2310219 84.9274872,56.2695641 L85.3133393,57.2935372 C85.7103172,58.3671639 85.4166955,58.9498112 84.5827517,58.9498112 L83.8170133,58.9498112 L83.8004054,60 C83.8004054,60 85.7944855,59.9675343 86.9089904,59.9675343 C88.0243015,59.9675343 90,60 90,60 L90,58.9498112 L89.2174925,58.9498112 C88.5101237,58.9498112 88.1597448,58.5534513 87.7085896,57.5383324" id="Fill-11"></path>
                    <path d="M101.971383,55.3302085 C101.805789,58.2858391 100.985762,58.9110283 99.1297961,58.9110283 L97.7154674,58.9110283 C97.1976539,58.9110283 96.9100837,58.7583557 96.8921689,58.2145685 C96.8448117,56.9243624 96.8448117,50.89816 96.8921689,49.8790614 C96.9267521,49.2040876 97.1591762,49.0190986 97.783076,49.0190986 L98.8387986,49.0190986 L98.8387986,48 C98.4900067,48 96.9756671,48.0462909 95.9359899,48.0462909 C94.8963127,48.0462909 93.0199399,48 93.0199399,48 L93.0199399,49.0190986 L94.0708333,49.0190986 C94.677753,49.0190986 94.9143832,49.2040876 94.9488106,49.8790614 C94.9978814,50.89816 94.9978814,56.9243624 94.9488106,58.1995458 C94.928715,58.8072668 94.7436481,58.9110283 93.9764305,58.9110283 L93,58.9110283 L93,59.967509 C93.4346268,59.948818 95.1834156,59.9350181 95.8524917,59.9350181 L99.6951225,59.9350181 C100.414827,59.9350181 102.043821,59.9350181 102.832692,60 C102.803717,58.8785373 102.900145,56.4567369 103,55.3302085 L101.971383,55.3302085 Z" id="Fill-13"></path>
                    <path d="M110.550362,52.6004316 C108.016483,52.2926627 106.95029,51.8293493 106.95029,50.6613546 C106.95029,49.6598606 107.864356,48.9040505 109.725552,48.9040505 C111.791322,48.9040505 112.985048,49.7916667 113.517167,51.8293493 L114.37276,51.8293493 C114.247019,50.7944887 114.300606,49.1346282 114.596554,48.1628486 L113.669132,48.1628486 C113.596977,48.6213479 113.403479,48.9837317 112.492996,48.5572709 C112.141019,48.3884462 111.160499,48 109.811225,48 C106.826829,48 105.52479,49.6598606 105.52479,51.5333665 C105.52479,53.4261288 106.897355,54.5418327 109.601928,54.87334 C112.303082,55.2154714 113.580201,55.7073373 113.580201,57.0893094 C113.580201,58.3866202 112.354388,59.0922975 110.369568,59.0922975 C107.879992,59.0922975 106.617532,57.9933599 106.108053,55.8856242 L105.17721,55.8856242 C105.300997,57.1165339 105.245456,58.5863214 105,59.7875166 L105.933123,59.7875166 C106.020751,59.2647742 106.229885,58.7001992 107.084989,59.1791169 C108.123168,59.750664 109.07323,60 110.388788,60 C113.195811,60 115,58.6015936 115,56.3525896 C115,54.2435259 114.005473,53.0245684 110.550362,52.6004316" id="Fill-15"></path>
                    <path d="M25.3567918,52 C24.6078816,52 24,52.6715389 24,53.5006702 C24,54.3298015 24.6078816,55 25.3567918,55 C25.8759227,55 26.3306181,54.6876875 26.5576185,54.2024638 L44,54.2024638 L44,52.7990681 L26.5544922,52.7990681 C26.3245393,52.319206 25.8651545,52 25.3567918,52" id="Fill-17"></path>
                    <path d="M139.640212,52 C139.133634,52 138.673772,52.319206 138.444362,52.7990681 L121,52.7990681 L121,54.2024638 L138.440542,54.2024638 C138.667521,54.6876875 139.123041,55 139.640212,55 C140.389571,55 141,54.3298015 141,53.5006702 C141,52.6715389 140.389571,52 139.640212,52" id="Fill-19"></path>
                    <path d="M67.9758071,24.014624 C67.9915409,24.0050975 68.0084591,23.9932312 68.0241929,23.985376 L67.9758071,24.014624 Z" id="Fill-21"></path>
                    <path d="M116.534672,24.9927756 C116.534672,20.911768 117.377073,13.5972111 119.554128,10.079159 C119.765525,11.0654235 119.835656,12.1200829 119.835656,13.1755826 C119.835656,17.4664801 118.29145,22.5997944 116.605473,26.5394749 C116.605473,26.047603 116.534672,25.5555631 116.534672,24.9927756 M107.826283,38.2138285 C106.281406,38.2138285 105.21687,36.5251299 105.26737,34.9110439 C105.347903,32.1675179 108.521545,24.0196187 111.759612,24.0083596 C112.251363,24.0041584 112.53289,24.2866445 112.951993,24.5687944 L112.951993,24.8514485 C112.951993,27.524059 113.02464,29.9856031 113.65514,32.5872979 C112.603691,34.2049128 109.866433,38.2138285 107.826283,38.2138285 M90.2001209,32.6210752 C90.2001209,35.5052561 87.5942313,38.5781531 84.6534617,39.4358621 C82.8738666,39.956638 81.2689259,38.0272969 81.3494581,36.3422954 C81.5325013,32.4802523 85.9887872,26.7120586 89.5696204,26.7120586 C90.0606994,26.7120586 90.4816482,26.8552342 90.8322991,27.0651242 C90.2001209,27.9791287 89.992247,29.1774678 89.992247,30.2996818 C89.992247,31.0742078 90.2001209,31.8487338 90.2001209,32.6210752 M78.4127152,38.5781531 C78.4392237,41.147247 81.3511359,43.065665 83.2857556,42.9982784 C86.9795017,42.8708992 89.992247,40.4666589 91.603731,37.8649641 C92.7313503,39.7628805 94.4839336,41.0980094 96.7331324,41.0980094 C99.0002832,41.0980094 101.063922,39.9589907 102.689164,38.295499 C103.237454,40.2549204 104.509696,41.7871678 106.914255,41.8725354 C110.723934,42.0121819 113.234192,38.9197915 114.987949,36.5274826 C116.323275,38.708053 118.641597,40.6770531 121.310403,40.6770531 C125.507811,40.6770531 128.297918,36.8101366 129.562274,33.217472 L131.034505,29.5165855 C131.549743,28.6124957 131.745537,28.5241033 131.833787,28.3303457 C133.920747,30.6278765 137.989136,31.1005911 137.687811,36.0236794 C137.194216,37.5666817 134.849049,37.8446305 132.816616,37.7604392 C131.884791,37.7219566 131.308985,37.611214 130.619764,37.3719159 C129.635089,37.0314538 128.995025,36.0668673 128.540521,36.7548494 C126.500203,43.3735261 135.670982,42.8419952 138.785902,40.4160769 C140.330779,39.2157213 143.08364,36.5251299 144.07016,35.4667735 C144.949136,34.6524205 146.740811,33.1272311 148.369744,31.9245228 C154.879267,27.3676077 150.638572,33.271583 154.795211,30.8132317 C158.793302,28.4518433 156.684699,26.0198754 153.74997,25.8064564 C150.158902,25.5436318 145.976929,29.4421409 145.976929,29.4421409 C143.608442,31.1931847 143.729576,31.1931847 140.980909,33.4581145 C139.79826,29.026226 135.717791,27.4891053 133.658346,23.9318985 C134.733116,22.4409905 135.612092,17.9368421 134.758954,17.3312027 C130.65097,15.0188839 127.890223,22.1018728 129.641129,25.7631004 C129.03764,27.1474669 128.751751,27.7830185 128.751751,27.7830185 L126.954707,31.3496359 C125.782124,33.1694107 124.57414,36.9509596 121.519786,36.9509596 C119.414875,36.9509596 118.148001,33.8536958 117.6586,32.1663416 C120.325728,26.6087101 123.277906,19.0131795 123.277906,12.7516014 C123.277906,10.5733836 122.856957,6 119.835656,6 C115.271993,6 113.514041,17.042499 113.16339,20.491988 C112.810894,20.4215766 112.53289,20.4215766 112.180561,20.4215766 C107.916378,20.4703101 104.729314,24.2337099 102.599068,30.1576826 C102.326433,30.9382583 100.770315,37.5799573 97.0819377,37.5799573 C94.4839336,37.5799573 93.9923513,33.5038231 93.9923513,31.5348231 C93.9923513,30.1973416 94.4149778,28.932288 94.4149778,27.5948065 C94.4149778,27.1024305 94.2743819,26.6087101 93.9220533,26.2593415 C94.1351282,25.906276 94.2743819,25.5555631 94.2743819,25.1334304 C94.2743819,23.16275 91.9562274,22.1781659 90.2720966,22.1781659 C86.1178066,22.1781659 81.6501119,26.680802 79.3722235,31.2582187 L79.377089,31.2388933 C75.2917547,38.2726447 73.1021162,38.0899783 73.1021162,38.0899783 C72.0459693,38.1740015 71.3134613,37.3826708 70.9592871,35.7348075 C70.7916794,34.9565845 70.7029261,34.5621795 70.6579623,33.3389696 C70.5119976,29.2087244 70.201445,29.6753894 71.9949655,27.3965117 C72.7767995,26.3927704 72.5558391,25.1082235 71.431743,24.4593962 C70.6470569,24.0137371 69.9049857,23.8495557 69.3135769,24.1863208 L69.2655931,24.2157289 C69.0667791,24.3378986 68.8849104,24.5261106 68.7263626,24.7786844 C67.842521,25.2808072 66.5355496,24.7647366 65.021711,24.5002315 C64.729446,24.5158598 64.7245805,24.729951 65.2307593,23.1513228 C65.6300651,21.896184 65.6829144,20.5173631 64.2875253,19.8900457 C62.93408,19.2760041 62.1057722,20.3446113 61.4222547,21.3628046 C61.1113666,21.8276211 60.5199579,22.8728699 60.3380892,23.3786896 C59.9963304,24.3215981 59.9285491,24.8141422 60.2641002,26.0770112 C60.4778462,26.869014 60.8682599,27.4812071 61.5076524,27.8263745 C60.2137675,32.4562217 58.9799463,28.0224847 59.0002471,31.4855855 C59.019038,35.1274877 62.2478781,33.9427604 62.7606001,33.0479132 C63.7657434,31.2967013 64.5245921,28.6810586 64.60093,28.016435 C65.4475253,28.0441627 65.6035565,28.2064955 67.1239384,28.4084873 C67.1239384,30.3500958 67.0296486,34.7293857 67.1472592,36.4626166 C67.3465766,39.4923257 68.8211557,41.2134573 71.5585813,41.520142 C71.5585813,41.520142 74.98439,42.5028775 78.4127152,38.5781531" id="Fill-23"></path>
                    <path d="M45.5629194,19.6951398 C44.2517136,20.1439801 36.609493,17.7322254 27.9457067,20.8053932 C27.8618946,13.0097558 30.3481533,6.899131 28.311922,4.93249313 C34.6749134,3.75318739 58.0379706,0.640754484 58.777638,8.98864142 C59.1497438,13.2235134 50.5973704,17.9852481 45.5629194,19.6951398 M52.1717934,30.4024845 C52.5595508,37.985549 42.6406018,43.6170385 34.1846629,40.3681934 C33.2625609,39.9298464 32.2187799,39.2477852 31.9863611,37.045557 C30.6860947,36.0715466 29.5500867,36.4095308 27.9457067,37.045557 C27.6776088,33.2915127 27.5862233,35.3278799 27.9457067,27.8148832 C33.7509602,28.2393521 41.2151221,23.6296003 44.8304887,23.7561963 C48.9694288,23.9003938 51.9459382,25.9899042 52.1717934,30.4024845 M47.397362,0.133185898 C31.7308855,-0.842686214 14.9216691,3.73507808 6.65725268,7.63010423 C5.76679068,8.03121712 2.91583125,9.43934337 0.877412084,11.9438448 C-0.989175345,14.2482976 0.0652084111,17.5898895 4.59106443,15.8757666 C9.11809854,14.1592743 1.60984275,14.1200092 8.93044684,10.9522329 C13.6244321,8.4138822 20.0034117,6.78455149 26.1092445,5.67074394 C25.9088022,6.26310474 25.737812,6.88762227 25.5876906,7.52957214 L25.5876906,7.51315528 C25.5818002,7.53921916 25.5780977,7.56477529 25.5733853,7.58830048 C25.0040349,10.0317042 24.750074,12.7946442 24.5814399,15.6425457 C24.3729194,18.0737637 24.1965436,20.4873801 23.9881913,22.484313 C22.7727469,23.1220317 21.6325314,24.1869272 21.6325314,25.5356481 C21.6325314,26.6689189 22.4674552,27.4097084 23.5334515,27.7674944 C23.5334515,31.2201116 23.418336,35.0552247 23.7140347,38.6711643 C23.7296864,42.0799469 24.1891385,44.8296857 26.4766379,44.7958365 C28.3449084,44.8296857 27.7137928,42.6467515 28.1330218,41.5383598 C38.7499005,51.8288517 64.6936313,37.1350881 54.3741343,24.1249832 C53.3529051,22.8415912 51.9270888,22.3044045 50.3323018,21.170626 C54.0430931,19.9859044 61.7460691,16.2628321 62.8134118,10.8396843 C64.4738348,2.3861879 54.7024827,0.590996177 47.397362,0.133185898" id="Fill-25"></path>
                </g>
            </g>
        </g>
    </g>
</svg>