<?xml version="1.0" encoding="UTF-8"?>
<svg width="50px" height="57px" viewBox="0 0 50 57" version="1.1" xmlns="http://www.w3.org/2000/svg" xmlns:xlink="http://www.w3.org/1999/xlink">
    <defs>
        <polygon points="0.250136017 0.9578 47.4188 0.9578 47.4188 48 0.250136017 48"></polygon>
    </defs>
    <g stroke="none" stroke-width="1" fill="none" fill-rule="evenodd">
        <g transform="translate(-1096.000000, -510.000000)">
            <g transform="translate(802.000000, 0.000000)">
                <g transform="translate(295.000000, 511.000000)">
                    <path d="M47.1898,20.5467 C47.1558,20.7787 47.0668,20.9497 46.9248,21.0937 L21.4688,47.0257 C21.1248,47.3777 20.5548,47.3827 20.2028,47.0377 L0.5168,27.7127 C0.1658,27.3667 0.1608,26.7977 0.5048,26.4457 L25.9618,0.5107 C26.1028,0.3717 26.2678,0.3137 26.5158,0.2507 L46.6228,0.3817 C47.0568,0.3777 47.4148,0.7297 47.4188,1.1627 L47.1898,20.5467 Z" id="Stroke-4" fill="#FFFFFF"></path>
                    <g transform="translate(0.000000, 7.568700)">
                        <mask fill="white">
                            <use xlink:href="#path-1"></use>
                        </mask>
                        <path d="M47.1898,21.2538 C47.1558,21.4858 47.0668,21.6568 46.9248,21.8008 L21.4688,47.7328 C21.1248,48.0848 20.5548,48.0898 20.2028,47.7448 L0.5168,28.4198 C0.1658,28.0738 0.1608,27.5048 0.5048,27.1528 L25.9618,1.2178 C26.1028,1.0788 26.2678,1.0208 26.5158,0.9578 L46.6228,1.0888 C47.0568,1.0848 47.4148,1.4358 47.4188,1.8698 L47.1898,21.2538 Z" fill="#D6E6EA" mask="url(#mask-2)"></path>
                    </g>
                    <path d="M47.1898,20.5467 C47.1558,20.7787 47.0668,20.9497 46.9248,21.0937 L21.4688,47.0257 C21.1248,47.3777 20.5548,47.3827 20.2028,47.0377 L0.5168,27.7127 C0.1658,27.3667 0.1608,26.7977 0.5048,26.4457 L25.9618,0.5107 C26.1028,0.3717 26.2678,0.3137 26.5158,0.2507 L46.6228,0.3817 C47.0568,0.3777 47.4148,0.7297 47.4188,1.1627 L47.1898,20.5467 Z" id="Stroke-4" stroke="#338296" stroke-width="2.5"></path>
                    <path d="M32.348,15.4348 L16.488,31.8148" stroke="#338296" stroke-width="2.5" stroke-linecap="round" stroke-linejoin="round"></path>
                    <path d="M34.5839,21.6927 C34.5839,21.6927 33.0809,18.4127 31.0349,16.6687 C28.9559,14.8957 25.8999,14.4167 24.1859,16.1527 C22.4719,17.8877 22.9909,20.2657 24.8609,23.4117 C26.7419,26.5747 27.1479,29.0057 25.5109,30.6967 C23.9999,32.2577 21.3919,32.8927 18.3279,30.2297 C15.2629,27.5667 14.2889,24.6637 14.2889,24.6637" stroke="#338296" stroke-width="2.5" stroke-linecap="round" stroke-linejoin="round"></path>
                    <path d="M42.1449,8.9598 C42.1449,10.7238 40.7149,12.1538 38.9509,12.1538 C37.1859,12.1538 35.7559,10.7238 35.7559,8.9598 C35.7559,7.1948 37.1859,5.7648 38.9509,5.7648 C40.7149,5.7648 42.1449,7.1948 42.1449,8.9598 Z" stroke="#338296" stroke-width="2.5"></path>
                </g>
            </g>
        </g>
    </g>
</svg>
