<?xml version="1.0" encoding="utf-8"?>
<!-- Generator: Adobe Illustrator 22.1.0, SVG Export Plug-In . SVG Version: 6.00 Build 0)  -->
<svg version="1.1" id="Layer_1" xmlns="http://www.w3.org/2000/svg" xmlns:xlink="http://www.w3.org/1999/xlink" x="0px" y="0px"
	 viewBox="0 0 423.2 344.6" style="enable-background:new 0 0 423.2 344.6;" xml:space="preserve">
<style type="text/css">
	.st0{fill:#FFFFFF;}
	.st1{fill:#08555C;}
	.st2{opacity:0.8;}
	.st3{fill:#6CF9CF;}
</style>
<title>Analytics-Solutions-Crop</title>
<g id="Layer_2_1_">
	<g id="Content">
		<g>
			<g>
				<g>
					<path class="st0" d="M114.1,112.9c-1.5,0-2.8,1.2-2.8,2.8s1.2,2.8,2.8,2.8s2.8-1.2,2.8-2.8S115.6,112.9,114.1,112.9z"/>
					<path class="st0" d="M148.1,112.9c-1.5,0-2.8,1.2-2.8,2.8s1.2,2.8,2.8,2.8s2.8-1.2,2.8-2.8S149.6,112.9,148.1,112.9z"/>
					<path class="st0" d="M131.1,112.9c-1.5,0-2.8,1.2-2.8,2.8s1.2,2.8,2.8,2.8s2.8-1.2,2.8-2.8S132.6,112.9,131.1,112.9z"/>
					<path class="st0" d="M182.1,112.9c-1.5,0-2.8,1.2-2.8,2.8s1.2,2.8,2.8,2.8s2.8-1.2,2.8-2.8S183.6,112.9,182.1,112.9z"/>
					<path class="st0" d="M165.1,112.9c-1.5,0-2.8,1.2-2.8,2.8s1.2,2.8,2.8,2.8s2.8-1.2,2.8-2.8S166.6,112.9,165.1,112.9z"/>
					<path class="st0" d="M199.1,112.9c-1.5,0-2.8,1.2-2.8,2.8s1.2,2.8,2.8,2.8s2.8-1.2,2.8-2.8S200.6,112.9,199.1,112.9z"/>
					<path class="st0" d="M80.1,112.9c-1.5,0-2.8,1.2-2.8,2.8s1.2,2.8,2.8,2.8c1.5,0,2.8-1.2,2.8-2.8S81.6,112.9,80.1,112.9z"/>
					<path class="st0" d="M12.1,112.9c-1.5,0-2.8,1.2-2.8,2.8s1.2,2.8,2.8,2.8s2.8-1.2,2.8-2.8S13.6,112.9,12.1,112.9z"/>
					<path class="st0" d="M29.1,112.9c-1.5,0-2.8,1.2-2.8,2.8s1.2,2.8,2.8,2.8s2.8-1.2,2.8-2.8S30.6,112.9,29.1,112.9z"/>
					<path class="st0" d="M97.1,112.9c-1.5,0-2.8,1.2-2.8,2.8s1.2,2.8,2.8,2.8c1.5,0,2.8-1.2,2.8-2.8S98.6,112.9,97.1,112.9z"/>
					<path class="st0" d="M216.1,112.9c-1.5,0-2.8,1.2-2.8,2.8s1.2,2.8,2.8,2.8s2.8-1.2,2.8-2.8S217.6,112.9,216.1,112.9z"/>
					<path class="st0" d="M46.1,112.9c-1.5,0-2.8,1.2-2.8,2.8s1.2,2.8,2.8,2.8s2.8-1.2,2.8-2.8S47.6,112.9,46.1,112.9z"/>
					<path class="st0" d="M63.1,112.9c-1.5,0-2.8,1.2-2.8,2.8s1.2,2.8,2.8,2.8c1.5,0,2.8-1.2,2.8-2.8S64.6,112.9,63.1,112.9z"/>
					<path class="st0" d="M369.1,112.9c-1.5,0-2.8,1.2-2.8,2.8s1.2,2.8,2.8,2.8c1.5,0,2.8-1.2,2.8-2.8S370.6,112.9,369.1,112.9z"/>
					<path class="st0" d="M335.1,112.9c-1.5,0-2.8,1.2-2.8,2.8s1.2,2.8,2.8,2.8c1.5,0,2.8-1.2,2.8-2.8S336.6,112.9,335.1,112.9z"/>
					<path class="st0" d="M233.1,112.9c-1.5,0-2.8,1.2-2.8,2.8s1.2,2.8,2.8,2.8s2.8-1.2,2.8-2.8S234.6,112.9,233.1,112.9z"/>
					<path class="st0" d="M386.1,112.9c-1.5,0-2.8,1.2-2.8,2.8s1.2,2.8,2.8,2.8c1.5,0,2.8-1.2,2.8-2.8S387.6,112.9,386.1,112.9z"/>
					<path class="st0" d="M403.1,112.9c-1.5,0-2.8,1.2-2.8,2.8s1.2,2.8,2.8,2.8c1.5,0,2.8-1.2,2.8-2.8S404.6,112.9,403.1,112.9z"/>
					<path class="st0" d="M420.1,112.9c-1.5,0-2.8,1.2-2.8,2.8s1.2,2.8,2.8,2.8c1.5,0,2.8-1.2,2.8-2.8S421.6,112.9,420.1,112.9z"/>
					<path class="st0" d="M352.1,112.9c-1.5,0-2.8,1.2-2.8,2.8s1.2,2.8,2.8,2.8c1.5,0,2.8-1.2,2.8-2.8S353.6,112.9,352.1,112.9z"/>
					<path class="st0" d="M267.1,112.9c-1.5,0-2.8,1.2-2.8,2.8s1.2,2.8,2.8,2.8s2.8-1.2,2.8-2.8S268.6,112.9,267.1,112.9z"/>
					<path class="st0" d="M318.1,112.9c-1.5,0-2.8,1.2-2.8,2.8s1.2,2.8,2.8,2.8c1.5,0,2.8-1.2,2.8-2.8S319.6,112.9,318.1,112.9z"/>
					<path class="st0" d="M250.1,112.9c-1.5,0-2.8,1.2-2.8,2.8s1.2,2.8,2.8,2.8s2.8-1.2,2.8-2.8S251.6,112.9,250.1,112.9z"/>
					<path class="st0" d="M284.1,112.9c-1.5,0-2.8,1.2-2.8,2.8s1.2,2.8,2.8,2.8c1.5,0,2.8-1.2,2.8-2.8S285.6,112.9,284.1,112.9z"/>
					<path class="st0" d="M301.1,112.9c-1.5,0-2.8,1.2-2.8,2.8s1.2,2.8,2.8,2.8c1.5,0,2.8-1.2,2.8-2.8S302.6,112.9,301.1,112.9z"/>
				</g>
				<rect x="2.8" y="210.4" class="st0" width="420.4" height="3"/>
				<g>
					<path class="st1" d="M197.5,299.9h-65V31.5h65V299.9z M135.5,296.9h59V34.5h-59V296.9z"/>
				</g>
				<g class="st2">
					<g>
						<rect x="261" y="79.2" class="st1" width="62" height="265.4"/>
					</g>
				</g>
				<polygon class="st3" points="423.2,246.9 389.5,246.9 389.5,0 386.5,0 386.5,249.9 423.2,249.9 				"/>
				<g>
					
						<ellipse transform="matrix(8.248056e-02 -0.9966 0.9966 8.248056e-02 7.6442 239.643)" class="st3" cx="134" cy="115.7" rx="29.4" ry="29.4"/>
				</g>
				<g>
					<path class="st1" d="M144.3,127.6h-20.8c-0.2-5.7,4.3-10.5,10.1-10.7s10.5,4.3,10.7,10.1C144.3,127.2,144.3,127.4,144.3,127.6z
						"/>
				</g>
				<g>
					<circle class="st1" cx="133.6" cy="108.1" r="5.9"/>
				</g>
			</g>
		</g>
	</g>
</g>
</svg>
