<?xml version="1.0" encoding="utf-8"?>
<!-- Generator: Adobe Illustrator 22.1.0, SVG Export Plug-In . SVG Version: 6.00 Build 0)  -->
<svg version="1.1" id="Layer_1" xmlns="http://www.w3.org/2000/svg" xmlns:xlink="http://www.w3.org/1999/xlink" x="0px" y="0px"
	 viewBox="0 0 429 346.8" style="enable-background:new 0 0 429 346.8;" xml:space="preserve">
<style type="text/css">
	.st0{fill:#FFFFFF;}
	.st1{fill:#08555C;}
	.st2{fill:#EE2051;}
	.st3{fill:#6CF9CF;}
	.st4{fill:#1F1F1F;}
</style>
<title>Customer-Experience-Crop</title>
<g>
	<g>
		<path class="st0" d="M156.7,30c-8.3-8.4-12.8-19.1-13.7-30h-3c0.8,11.7,5.7,23.2,14.5,32.1l230.6,230.6
			c18.4,18.5,18.4,48.6,0,67.2c-18.5,18.4-48.6,18.4-67.2,0l-44.4-44.4l-2.1,2.1l44.4,44.4c9.8,9.8,22.8,14.7,35.7,14.7
			c12.9,0,25.9-4.9,35.7-14.7c19.6-19.7,19.6-51.7,0-71.4L156.7,30z"/>
		<polygon class="st0" points="429,163.8 265.2,0 261,0 429,168 		"/>
	</g>
	<g>
		<path class="st1" d="M127.3,282.6c-0.2,0-0.4,0-0.5,0c-0.2,0-0.4-0.1-0.5-0.2c-0.2-0.1-0.3-0.1-0.5-0.2c-0.2-0.1-0.3-0.2-0.4-0.3
			c-0.1-0.1-0.2-0.3-0.3-0.4c-0.1-0.2-0.2-0.3-0.2-0.5c-0.1-0.2-0.1-0.3-0.2-0.5c0-0.2,0-0.4,0-0.5c0-0.7,0.3-1.4,0.8-2
			c0.6-0.6,1.6-0.9,2.5-0.8c0.2,0,0.4,0.1,0.5,0.2c0.2,0.1,0.3,0.2,0.5,0.2c0.2,0.1,0.3,0.2,0.4,0.3c0.5,0.5,0.8,1.2,0.8,2
			c0,0.7-0.3,1.4-0.8,2C128.7,282.4,128,282.6,127.3,282.6z"/>
	</g>
	<g>
		<path class="st1" d="M255,273c-1.1-1.1-1.1-2.8,0-3.9l0,0c1.1-1.1,2.8-1.1,3.9,0l0,0c1.1,1.1,1.1,2.8,0,3.9l0,0
			c-0.5,0.5-1.2,0.8-2,0.8l0,0C256.3,273.8,255.6,273.5,255,273z M113.2,269.7c-1.1-1.1-1.1-2.8,0-3.9l0,0c1.1-1.1,2.8-1.1,3.9,0
			l0,0c1.1,1.1,1.1,2.8,0,3.9l0,0c-0.5,0.5-1.2,0.8-2,0.8l0,0C114.4,270.5,113.8,270.2,113.2,269.7z M242.9,260.8
			c-1.1-1.1-1.1-2.8,0-3.9l0,0c1.1-1.1,2.8-1.1,3.9,0l0,0c1.1,1.1,1.1,2.8,0,3.9l0,0c-0.5,0.5-1.2,0.8-2,0.8l0,0
			C244.2,261.6,243.5,261.4,242.9,260.8z M101.1,257.6c-1.1-1.1-1.1-2.8,0-3.9l0,0c1.1-1.1,2.8-1.1,3.9,0l0,0c1.1,1.1,1.1,2.8,0,3.9
			l0,0c-0.5,0.5-1.2,0.8-2,0.8l0,0C102.3,258.4,101.6,258.1,101.1,257.6z M230.8,248.7c-1.1-1.1-1.1-2.8,0-3.9l0,0
			c1.1-1.1,2.8-1.1,3.9,0l0,0c1.1,1.1,1.1,2.8,0,3.9l0,0c-0.5,0.5-1.2,0.8-2,0.8l0,0C232,249.5,231.3,249.2,230.8,248.7z
			 M88.9,245.4c-1.1-1.1-1.1-2.8,0-3.9l0,0c1.1-1.1,2.8-1.1,3.9,0l0,0c1.1,1.1,1.1,2.8,0,3.9l0,0c-0.5,0.5-1.2,0.8-2,0.8l0,0
			C90.2,246.2,89.5,246,88.9,245.4z M218.6,236.6c-1.1-1.1-1.1-2.8,0-3.9l0,0c1.1-1.1,2.8-1.1,3.9,0l0,0c1.1,1.1,1.1,2.8,0,3.9l0,0
			c-0.5,0.5-1.2,0.8-2,0.8l0,0C219.9,237.4,219.2,237.1,218.6,236.6z M76.8,233.3c-1.1-1.1-1.1-2.8,0-3.9l0,0c1.1-1.1,2.8-1.1,3.9,0
			l0,0c1.1,1.1,1.1,2.8,0,3.9l0,0c-0.5,0.5-1.2,0.8-2,0.8l0,0C78,234.1,77.3,233.8,76.8,233.3z M206.5,224.4c-1.1-1.1-1.1-2.8,0-3.9
			l0,0c1.1-1.1,2.8-1.1,3.9,0l0,0c1.1,1.1,1.1,2.8,0,3.9l0,0c-0.5,0.5-1.2,0.8-2,0.8l0,0C207.8,225.2,207.1,225,206.5,224.4z
			 M64.7,221.2c-1.1-1.1-1.1-2.8,0-3.9l0,0c1.1-1.1,2.8-1.1,3.9,0l0,0c1.1,1.1,1.1,2.8,0,3.9l0,0c-0.5,0.5-1.2,0.8-2,0.8l0,0
			C65.9,222,65.2,221.7,64.7,221.2z M194.4,212.3c-1.1-1.1-1.1-2.8,0-3.9l0,0c1.1-1.1,2.8-1.1,3.9,0l0,0c1.1,1.1,1.1,2.8,0,3.9l0,0
			c-0.5,0.5-1.2,0.8-2,0.8l0,0C195.6,213.1,194.9,212.8,194.4,212.3z M52.5,209c-1.1-1.1-1.1-2.8,0-3.9l0,0c1.1-1.1,2.8-1.1,3.9,0
			l0,0c1.1,1.1,1.1,2.8,0,3.9l0,0c-0.5,0.5-1.2,0.8-2,0.8l0,0C53.8,209.8,53.1,209.6,52.5,209z M182.2,200.2c-1.1-1.1-1.1-2.8,0-3.9
			l0,0c1.1-1.1,2.8-1.1,3.9,0l0,0c1.1,1.1,1.1,2.8,0,3.9l0,0c-0.5,0.5-1.2,0.8-2,0.8l0,0C183.5,201,182.8,200.7,182.2,200.2z
			 M40.4,196.9c-1.1-1.1-1.1-2.8,0-3.9l0,0c1.1-1.1,2.8-1.1,3.9,0l0,0c1.1,1.1,1.1,2.8,0,3.9l0,0c-0.5,0.5-1.2,0.8-2,0.8l0,0
			C41.6,197.7,40.9,197.4,40.4,196.9z M170.1,188c-1.1-1.1-1.1-2.8,0-3.9l0,0c1.1-1.1,2.8-1.1,3.9,0l0,0c1.1,1.1,1.1,2.8,0,3.9l0,0
			c-0.5,0.5-1.2,0.8-2,0.8l0,0C171.4,188.8,170.7,188.6,170.1,188z M28.3,184.8c-1.1-1.1-1.1-2.8,0-3.9l0,0c1.1-1.1,2.8-1.1,3.9,0
			l0,0c1.1,1.1,1.1,2.8,0,3.9l0,0c-0.5,0.5-1.2,0.8-1.9,0.8l0,0C29.5,185.6,28.8,185.3,28.3,184.8z M158,175.9
			c-1.1-1.1-1.1-2.8,0-3.9l0,0c1.1-1.1,2.8-1.1,3.9,0l0,0c1.1,1.1,1.1,2.8,0,3.9l0,0c-0.5,0.5-1.2,0.8-2,0.8l0,0
			C159.2,176.7,158.5,176.4,158,175.9z M16.1,172.6c-1.1-1.1-1.1-2.8,0-3.9l0,0c1.1-1.1,2.8-1.1,3.9,0l0,0c1.1,1.1,1.1,2.8,0,3.9
			l0,0c-0.5,0.5-1.2,0.8-2,0.8l0,0C17.4,173.4,16.7,173.2,16.1,172.6z M145.8,163.8c-1.1-1.1-1.1-2.8,0-3.9l0,0
			c1.1-1.1,2.8-1.1,3.9,0l0,0c1.1,1.1,1.1,2.8,0,3.9l0,0c-0.5,0.5-1.2,0.8-2,0.8l0,0C147.1,164.6,146.4,164.3,145.8,163.8z M5.7,158
			C5.7,158,5.7,158,5.7,158L5.7,158c-0.6-1.4-0.1-3,1.3-3.7l0,0c1.4-0.7,3-0.1,3.7,1.3l0,0c0.6,1.4,0.1,3-1.3,3.7l0,0
			c-0.4,0.2-0.8,0.3-1.2,0.3l0,0C7.1,159.5,6.1,159,5.7,158z M133.7,151.6c-1.1-1.1-1.1-2.8,0-3.9l0,0c1.1-1.1,2.8-1.1,3.9,0l0,0
			c1.1,1.1,1.1,2.8,0,3.9l0,0c-0.5,0.5-1.2,0.8-1.9,0.8l0,0C135,152.5,134.2,152.2,133.7,151.6z M0.9,140.6L0.9,140.6L0.9,140.6
			c-0.1-1.5,1-2.9,2.5-3l0,0c1.5-0.1,2.9,1,3,2.5l0,0c0.1,1.5-1,2.9-2.5,3l0,0c-0.1,0-0.2,0-0.3,0l0,0C2.2,143.1,1,142,0.9,140.6z
			 M121.6,139.5c-1.1-1.1-1.1-2.8,0-3.9l0,0c1.1-1.1,2.8-1.1,3.9,0l0,0c1.1,1.1,1.1,2.8,0,3.9l0,0c-0.5,0.5-1.2,0.8-2,0.8l0,0
			C122.8,140.3,122.1,140,121.6,139.5z M109.4,127.4c-1.1-1.1-1.1-2.8,0-3.9l0,0c1.1-1.1,2.8-1.1,3.9,0l0,0c1.1,1.1,1.1,2.8,0,3.9
			l0,0c-0.5,0.5-1.2,0.8-1.9,0.8l0,0C110.7,128.2,110,127.9,109.4,127.4z M4.3,126c-1.5-0.4-2.4-1.9-2-3.4l0,0
			c0.4-1.5,1.9-2.3,3.4-2l0,0c1.5,0.4,2.4,1.9,2,3.4l0,0c-0.3,1.2-1.4,2.1-2.7,2.1l0,0C4.8,126.1,4.6,126,4.3,126z M97.3,115.2
			c-1.1-1.1-1.1-2.8,0-3.9l0,0c1.1-1.1,2.8-1.1,3.9,0l0,0c1.1,1.1,1.1,2.8,0,3.9l0,0c-0.5,0.5-1.2,0.8-1.9,0.8l0,0
			C98.6,116,97.8,115.8,97.3,115.2z M10.6,110.1c-1.2-0.9-1.6-2.6-0.7-3.8l0,0c0.9-1.2,2.6-1.6,3.8-0.7l0,0c1.2,0.9,1.6,2.6,0.7,3.8
			l0,0c-0.5,0.8-1.4,1.2-2.3,1.2l0,0C11.6,110.6,11.1,110.4,10.6,110.1z M85.2,103.1c-1.1-1.1-1.1-2.8,0-3.9l0,0
			c1.1-1.1,2.8-1.1,3.9,0l0,0c1.1,1.1,1.1,2.8,0,3.9l0,0c-0.5,0.5-1.2,0.8-1.9,0.8l0,0C86.4,103.9,85.7,103.6,85.2,103.1z M22,97.3
			c-0.9-1.2-0.6-3,0.7-3.9l0,0c1.2-0.9,3-0.6,3.8,0.7l0,0c0.9,1.2,0.6,3-0.7,3.9l0,0c-0.5,0.3-1,0.5-1.6,0.5l0,0
			C23.3,98.4,22.5,98,22,97.3z M72,93.8c-1.4-0.6-2-2.3-1.3-3.7l0,0c0.6-1.4,2.3-2,3.7-1.3l0,0c1.4,0.7,2,2.3,1.3,3.7l0,0
			c-0.5,1-1.5,1.6-2.5,1.6l0,0C72.8,94.1,72.4,94,72,93.8z M37,89.1c-0.4-1.5,0.5-3,1.9-3.4l0,0c1.5-0.4,3,0.5,3.4,1.9l0,0
			c0.4,1.5-0.5,3-2,3.4l0,0c-0.2,0.1-0.5,0.1-0.7,0.1l0,0C38.4,91.2,37.3,90.4,37,89.1z M56.4,89.7c-1.5-0.1-2.6-1.5-2.5-3l0,0
			c0.1-1.5,1.5-2.6,3-2.5l0,0l0,0l0,0c1.5,0.1,2.6,1.5,2.5,3l0,0c-0.1,1.4-1.3,2.5-2.8,2.5l0,0C56.6,89.7,56.5,89.7,56.4,89.7z"/>
	</g>
	<g>
		<path class="st1" d="M267.9,284.6c-0.2,0-0.4,0-0.5,0c-0.2,0-0.3-0.1-0.5-0.2c-0.2-0.1-0.3-0.1-0.5-0.2c-0.1-0.1-0.3-0.2-0.4-0.3
			s-0.2-0.3-0.4-0.4c-0.1-0.2-0.2-0.3-0.2-0.5c-0.1-0.2-0.1-0.3-0.2-0.5c0-0.2,0-0.4,0-0.5s0-0.4,0-0.5c0-0.2,0.1-0.3,0.2-0.5
			c0.1-0.2,0.2-0.3,0.3-0.5c0.1-0.1,0.2-0.3,0.3-0.4c0.1-0.1,0.3-0.2,0.4-0.3s0.3-0.2,0.5-0.2c0.2-0.1,0.3-0.1,0.5-0.2
			c0.9-0.2,1.9,0.1,2.5,0.8c0.1,0.1,0.2,0.3,0.4,0.4c0.1,0.2,0.2,0.3,0.2,0.5c0.1,0.2,0.1,0.3,0.2,0.5c0,0.2,0.1,0.4,0.1,0.5
			s0,0.4-0.1,0.5c0,0.2-0.1,0.4-0.2,0.5c-0.1,0.2-0.1,0.3-0.2,0.5c-0.1,0.1-0.2,0.3-0.4,0.4s-0.3,0.2-0.4,0.3
			c-0.1,0.1-0.3,0.2-0.5,0.2c-0.2,0.1-0.3,0.1-0.5,0.2C268.2,284.6,268,284.6,267.9,284.6z"/>
	</g>
	<g>
		<circle class="st2" cx="272.1" cy="285.6" r="29.4"/>
	</g>
	<polygon class="st3" points="267.9,0 244.8,23.1 286.2,64.5 327.6,23.1 304.6,0 	"/>
	<g>
		
			<rect x="55.8" y="199.5" transform="matrix(0.7071 -0.7071 0.7071 0.7071 -136.0209 125.1917)" class="st4" width="54.5" height="54.5"/>
		<path class="st1" d="M83.1,267.5l-40.7-40.7l40.7-40.7l40.7,40.7L83.1,267.5z M46.7,226.8l36.4,36.4l36.4-36.4l-36.4-36.4
			L46.7,226.8z"/>
	</g>
	<g>
		<path class="st4" d="M282.5,296.4h-20.8c-0.2-5.7,4.3-10.5,10.1-10.7s10.5,4.3,10.7,10.1C282.5,296,282.5,296.2,282.5,296.4z"/>
	</g>
	<g>
		<circle class="st4" cx="271.8" cy="276.8" r="5.9"/>
	</g>
</g>
</svg>
