<?xml version="1.0" encoding="utf-8"?>
<!-- Generator: Adobe Illustrator 22.1.0, SVG Export Plug-In . SVG Version: 6.00 Build 0)  -->
<svg version="1.1" id="Layer_1" xmlns="http://www.w3.org/2000/svg" xmlns:xlink="http://www.w3.org/1999/xlink" x="0px" y="0px"
	 width="346.4px" height="330.5px" viewBox="0 0 346.4 330.5" style="enable-background:new 0 0 346.4 330.5;" xml:space="preserve"
	>
<style type="text/css">
	.st0{fill:#FFFFFF;}
	.st1{opacity:0.8;enable-background:new    ;}
	.st2{fill:#6CF9CF;}
	.st3{fill:#08555C;}
	.st4{fill:#1F1F1F;}
</style>
<title>Marketing-crop_1</title>
<g id="Layer_2_1_">
	<g id="Content">
		<g>
			<g>
				<g>
					<path class="st0" d="M258.9,230.7c-1.1,1.1-1.1,2.8,0,3.9c0.5,0.5,1.2,0.8,1.9,0.8c0.7,0,1.4-0.3,2-0.8c1.1-1.1,1.1-2.8,0-3.9
						C261.7,229.7,260,229.7,258.9,230.7z"/>
					<path class="st0" d="M244.9,216.7c-1.1,1.1-1.1,2.8,0,3.9c0.5,0.5,1.2,0.8,1.9,0.8c0.7,0,1.4-0.3,2-0.8c1.1-1.1,1.1-2.8,0-3.9
						C247.7,215.6,246,215.6,244.9,216.7z"/>
					<path class="st0" d="M230.9,202.7c-1.1,1.1-1.1,2.8,0,3.9c0.5,0.5,1.2,0.8,2,0.8c0.7,0,1.4-0.3,1.9-0.8c1.1-1.1,1.1-2.8,0-3.9
						C233.7,201.6,232,201.6,230.9,202.7z"/>
					<path class="st0" d="M216.9,188.7c-1.1,1.1-1.1,2.8,0,3.9c0.5,0.5,1.2,0.8,1.9,0.8c0.7,0,1.4-0.3,1.9-0.8
						c1.1-1.1,1.1-2.8,0-3.9C219.7,187.6,218,187.6,216.9,188.7z"/>
					<path class="st0" d="M272.9,244.7c-1.1,1.1-1.1,2.8,0,3.9c0.5,0.5,1.2,0.8,2,0.8s1.4-0.3,2-0.8c1.1-1.1,1.1-2.8,0-3.9
						C275.7,243.7,274,243.7,272.9,244.7z"/>
					<path class="st0" d="M286.9,258.7c-1.1,1.1-1.1,2.8,0,3.9c0.5,0.5,1.2,0.8,1.9,0.8c0.7,0,1.4-0.3,1.9-0.8
						c1.1-1.1,1.1-2.8,0-3.9C289.7,257.7,288,257.7,286.9,258.7z"/>
					<path class="st0" d="M328.9,300.8c-1.1,1.1-1.1,2.8,0,3.9c0.5,0.5,1.2,0.8,1.9,0.8c0.7,0,1.4-0.3,2-0.8c1.1-1.1,1.1-2.8,0-3.9
						C331.8,299.7,330,299.7,328.9,300.8z"/>
					<path class="st0" d="M346.4,314.4c-1.1-0.7-2.5-0.6-3.5,0.3c-1.1,1.1-1.1,2.8,0,3.9c0.5,0.5,1.2,0.8,2,0.8
						c0.5,0,1.1-0.2,1.5-0.5V314.4z"/>
					<path class="st0" d="M300.9,272.7c-1.1,1.1-1.1,2.8,0,3.9c0.5,0.5,1.2,0.8,2,0.8c0.7,0,1.4-0.3,1.9-0.8c1.1-1.1,1.1-2.8,0-3.9
						C303.7,271.7,302,271.7,300.9,272.7z"/>
					<path class="st0" d="M314.9,286.8c-1.1,1.1-1.1,2.8,0,3.9c0.5,0.5,1.2,0.8,1.9,0.8c0.7,0,1.4-0.3,1.9-0.8
						c1.1-1.1,1.1-2.8,0-3.9C317.8,285.7,316,285.7,314.9,286.8z"/>
				</g>
				<g class="st1">
					<path class="st2" d="M101.9,276.1c-28.4-28.4-44-64.3-44-101.2s15.6-72.8,44-101.2c58.7-58.6,143.8-58.6,202.4,0l-2.1,2.1
						c-57.4-57.4-140.8-57.4-198.2,0c-27.8,27.8-43.1,63-43.1,99.1c0,36.1,15.3,71.3,43.1,99.1L101.9,276.1z"/>
				</g>
				<g>
					<path class="st0" d="M223.4,153.9c-11.7-11.3-30.3-11-41.6,0.7c-11.1,11.5-11,29.6,0.1,41L223.4,153.9z"/>
				</g>
				<g>
					<path class="st3" d="M144.6,233.2c-32.2-32-32.3-84.3-0.3-116.5c15.5-15.6,36.2-24.2,58.2-24.3c0.1,0,0.2,0,0.2,0
						c21.9,0,42.5,8.5,58.1,24l-2.1,2.1c-15-14.9-34.8-23.1-56-23.1c-0.1,0-0.1,0-0.2,0c-21.2,0.1-41.1,8.4-56.1,23.4
						c-30.9,31-30.7,81.4,0.3,112.2L144.6,233.2z"/>
				</g>
				<polygon class="st3" points="346.4,29.5 47.6,328.3 49.7,330.5 346.4,33.7 				"/>
				<g>
					<path class="st3" d="M124.4,0h-7.1c-18.8,9.2-36.4,21.6-52,37.2C28.5,74,8.3,122.9,8.3,174.9c0,52,20.3,101,57.1,137.8l2.1-2.1
						c-36.2-36.2-56.2-84.4-56.2-135.7c0-51.2,20-99.4,56.2-135.6C84.4,22.3,103.7,9.3,124.4,0z"/>
					<path class="st3" d="M281.8,0c20.7,9.3,40,22.3,56.9,39.3l2.1-2.1c-15.6-15.6-33.2-28-52-37.2H281.8z"/>
				</g>
			</g>
		</g>
		<g>
			<circle class="st4" cx="66.8" cy="128.7" r="22.3"/>
		</g>
		<g>
			<circle class="st4" cx="195.6" cy="94.5" r="22.3"/>
		</g>
		<g>
			<circle class="st4" cx="22.3" cy="241.9" r="22.3"/>
		</g>
		<g>
			<polygon class="st3" points="74.4,138 60.2,138 53.9,117.2 48.5,117.2 48.5,116.2 54.6,116.2 60.9,137 74.4,137 			"/>
		</g>
		<g>
			<polyline class="st3" points="55.2,120.2 80.4,120.2 76.8,132.4 59,132.4 			"/>
		</g>
		<g>
			<circle class="st3" cx="61.4" cy="139.2" r="2"/>
		</g>
		<g>
			<circle class="st3" cx="74.5" cy="139.2" r="2"/>
		</g>
		<g>
			<path class="st3" d="M181.6,107.6V85.5c0-1.2,1-2.3,2.3-2.3h22.2c1.2,0,2.3,1,2.3,2.3v22.1c0,1.2-1,2.3-2.3,2.3h-22.2
				C182.6,109.9,181.6,108.9,181.6,107.6z"/>
		</g>
		<g>
			<circle class="st2" cx="206.2" cy="84.6" r="5.9"/>
		</g>
		<g>
			<path class="st4" d="M98.6,4.4H62.1c-11.3,10.1-12.3,27.4-2.2,38.7s27.4,12.3,38.7,2.2s12.3-27.4,2.2-38.7
				C100.2,5.8,99.4,5.1,98.6,4.4z"/>
		</g>
		<g>
			<rect x="8" y="231.4" class="st3" width="28.5" height="18.3"/>
		</g>
		<g>
			<polygon class="st2" points="36.5,231.4 22.3,243.8 8,231.4 			"/>
		</g>
		<g>
			<rect x="61.8" y="12" class="st3" width="37.3" height="25.7"/>
		</g>
		<g>
			<path class="st2" d="M96.7,16.6H64.1v-2.4h32.5V16.6z"/>
		</g>
		<g>
			<polygon class="st2" points="82,27.9 79.5,31.4 76.4,22.3 85.5,25.4 			"/>
		</g>
		<g>
			<rect x="81.3" y="24.7" transform="matrix(0.7071 -0.7071 0.7071 0.7071 4.047 66.7494)" class="st2" width="2.7" height="7.6"/>
		</g>
	</g>
</g>
</svg>
