<svg xmlns="http://www.w3.org/2000/svg" width="200" height="36.88" viewBox="0 0 200 36.88"><defs><style>.cls-1{fill:#231f20;}</style></defs><title>Postmates_Logo_New</title><g id="Layer_2" data-name="Layer 2"><g id="Layer_1-2" data-name="Layer 1"><g id="Layer_2-2" data-name="Layer 2"><g id="Layer_1-2-2" data-name="Layer 1-2"><path class="cls-1" d="M68,28.69v-21h8.74A6,6,0,0,1,83,14.07a6,6,0,0,1-6.21,6.39h-5.4v8.22Zm3.34-18.16v7.13H76.6c1.67,0,3-1.7,3-3.59a3.37,3.37,0,0,0-3-3.54Z"/><path class="cls-1" d="M99.82,24.25c1.07-.21,2.11-.42,3.16-.6a3,3,0,0,0,3.33,2.63c.54,0,3.2-.21,3.2-2.12,0-3.61-9.25.12-9.25-6.35,0-2.57,2.57-4.51,5.79-4.51s6,1.37,6.41,4.72c-1.07.18-2.11.38-3.16.59-.21-1.88-1.37-2.56-3.16-2.56-1.59,0-2.65.83-2.65,1.76,0,1.22,1.13,1.55,2.92,1.73,3.42.35,6.29,1.1,6.29,4.62,0,3.16-2.77,4.83-6.39,4.83-3.87,0-6.08-2-6.49-4.74"/><path class="cls-1" d="M113.54,16.05V13.6h2.6V9.25h3.22V13.6h3.13v2.45h-3.13v8.56c0,1.19.36,1.55,1.4,1.55.45,0,1.43-.06,1.43-.06v2.59s-1.15.13-2.29.13c-2.84,0-3.76-1.53-3.76-4.42V16.05Z"/><path class="cls-1" d="M133.71,20.28c0-2.3-.51-4.23-2.92-4.23s-2.93,1.93-2.93,4.23v8.41h-3.24V13.63h2.93l.29,1.64a5.13,5.13,0,0,1,4-1.94,4.52,4.52,0,0,1,4.2,2.26,5.45,5.45,0,0,1,4.54-2.26c4.11,0,5.37,2.5,5.37,7v8.38h-3.19V20.28c0-2.26-.63-4.26-2.92-4.26s-2.93,1.94-2.93,4.26v8.41h-3.22Z"/><path class="cls-1" d="M151.82,18.79c-1-.18-2.11-.42-3.19-.59.33-3.35,3.07-4.9,6.23-4.9,4.27,0,6.48,2,6.48,6.2v5.26c0,.89.18,1.4.8,1.4a2.53,2.53,0,0,0,.77-.12v2.63a7.17,7.17,0,0,1-1.9.24,2.49,2.49,0,0,1-2.63-2.15A6.25,6.25,0,0,1,153.67,29c-3.49,0-5.58-1.93-5.58-4.79,0-2.35,2.18-4.5,6.16-4.5h3.88v-.91c0-1.16-.48-2.74-3.25-2.74-1.85,0-3,.93-3,2.74m6.29,4.06V22.1h-3.55c-2.66,0-3.19,1.37-3.19,2,0,1,.68,2.06,2.65,2.06,2.63,0,4.11-1.79,4.11-3.43"/><path class="cls-1" d="M90.8,29a7.86,7.86,0,1,1,7.85-7.86v0A7.84,7.84,0,0,1,90.8,29m0-12.71a4.87,4.87,0,1,0,4.87,4.87,4.87,4.87,0,0,0-4.87-4.87"/><path class="cls-1" d="M183,23.45c1,.27,2,.56,2.95.86A6.73,6.73,0,0,1,179.07,29C175,29,172,25.8,172,21.15s2.74-7.85,6.95-7.85,6.8,2.81,6.8,7.38a11.51,11.51,0,0,1-.07,1.43H175.29a4,4,0,0,0,3.76,4.17A4,4,0,0,0,183,23.45m-.69-3.76c-.09-2.24-1.16-3.67-3.37-3.67a3.53,3.53,0,0,0-3.46,3.67Z"/><path class="cls-1" d="M187.11,24.25c1.08-.21,2.12-.42,3.17-.6a3,3,0,0,0,3.33,2.63c.54,0,3.2-.21,3.2-2.12,0-3.61-9.25.12-9.25-6.35,0-2.56,2.57-4.51,5.78-4.51s6,1.37,6.42,4.72c-1.07.18-2.12.38-3.16.59-.21-1.88-1.37-2.56-3.17-2.56-1.58,0-2.65.83-2.65,1.76,0,1.22,1.13,1.55,2.92,1.73,3.42.35,6.3,1.1,6.3,4.62,0,3.16-2.77,4.83-6.39,4.83-3.87,0-6.08-2-6.5-4.74"/><path class="cls-1" d="M162.44,16.05V13.6H165V9.25h3.22V13.6h3.14v2.45h-3.14v8.56c0,1.19.36,1.55,1.41,1.55.44,0,1.43-.06,1.43-.06v2.59s-1.15.13-2.3.13c-2.83,0-3.76-1.53-3.76-4.42V16.05Z"/><polygon class="cls-1" points="11.65 29.12 12.61 32.02 15.53 32.08 13.2 33.94 14.04 36.88 11.65 35.13 9.24 36.88 10.09 33.94 7.76 32.08 10.69 32.02 11.65 29.12"/><polygon class="cls-1" points="14.56 18.44 15.52 21.35 18.44 21.41 16.11 23.26 16.95 26.21 14.56 24.45 12.16 26.21 13 23.26 10.68 21.41 13.6 21.35 14.56 18.44"/><polygon class="cls-1" points="3.88 21.35 4.84 24.26 7.76 24.32 5.44 26.17 6.28 29.12 3.88 27.36 1.49 29.12 2.33 26.17 0 24.32 2.92 24.26 3.88 21.35"/><path class="cls-1" d="M34.79,7.8c.4,0,1.29,0,2.29,0l4.26-3.69-1.87-.18L34.77,7.8h0Z"/><path class="cls-1" d="M45.73,17.94l-4.19-3.19-1.69-1.3h0l-1.72-1.31c.6-.22,2.46-1,1.69-1.34a3.57,3.57,0,0,0-1.17-.22l1.46-1.23.31-.27,2.72-2.3-1.25-2.4L37.7,8a3.62,3.62,0,0,0-.42.36h0a10.61,10.61,0,0,0-2.18.08h0A8.34,8.34,0,0,1,33,8.67c-1.37-.26-1.69-1.68-2.32-2.5-.35-.46-1.07-.52-1.13-.92a2.07,2.07,0,0,0,.55-.17A2.09,2.09,0,0,0,31.29,4a2.89,2.89,0,0,0-.41-2.25c.32-.22,1.49-1.1,1.44-1.26a14,14,0,0,0-2.05.26A2.09,2.09,0,0,0,30,.47a1.74,1.74,0,0,0-2-.24C25.9,1,26,2.56,26.71,3.91a2.37,2.37,0,0,0,1.36,1.22L28,5.3,28,5.17C24.86,7.94,17.45,12.61,15.5,12.7c1.62.61,6.27.68,8.22-.43-.55,2.15-.58,4.28.36,5.34A19.07,19.07,0,0,0,22.25,19c-.28.26-.19.39.05.68,0,0,1.89,0,2.45-.48l.39-.38,2.61,1.78-.24,2.55h0l-.13,1.37h0l-.52,5.58a.47.47,0,0,0,.24.46.46.46,0,0,0,.36.06.36.36,0,0,0,.17-.07l4.95-3.08,1.21-.76.52-.32a1.61,1.61,0,0,0,1.69-.1,1.51,1.51,0,0,0,.62-1.54c.68-.19,1.45-.42,2.28-.68s1-.49.77-.9c-.29-.57-2.46-.06-2.74-.37l-.6-1.37L37.51,13l2,1.44h0l1.15.87h0l4.52,3.27a.48.48,0,0,0,.31.07.44.44,0,0,0,.3-.15.42.42,0,0,0,0-.58ZM32.66,10a13.69,13.69,0,0,0,3.07-.14l.35.74a22,22,0,0,0-2.21.23C33.32,10.91,31.89,9.53,32.66,10Zm-6.85,8.3a5.38,5.38,0,0,0,.69-.07c1.9-.18,3.22-.37,4.11-.51l-2.4,2.21Zm6.17-.5c-.52,1.71-1,2.93-1.37,3.78L29,20.49Zm1.27,8.14h0L32,26.71h0l-.1.06h0l-4,2.48.44-4.6h0l.13-1.37h0l.19-2,1.6,1.09c-.17.63-.1,1,.42,1.16l2.81,1h0a1.52,1.52,0,0,0,.05,1.09ZM35,23.54a1.6,1.6,0,0,0-.68.18,3.31,3.31,0,0,0-.65-.48c-.26-.17-1.43-.84-1.37-1A18.79,18.79,0,0,1,33.42,20a13.05,13.05,0,0,1,1.73,2.74Zm.53-3.75-1.27-2.85a3.19,3.19,0,0,0-.1-1.19l2.22-2.05Zm-2-4.84c-1.37-.94-4.1-.49-6-.19.62-1.26,1.71-2.56,2.06-4.11.19.95,3.42,2,3.42,2a20,20,0,0,0,2.74-.8l0,0,.49.35Z"/><path class="cls-1" d="M45.61,13a5.43,5.43,0,1,1-5.42,5.43h0A5.43,5.43,0,0,1,45.61,13m0-1.37a6.8,6.8,0,1,0,6.8,6.8,6.8,6.8,0,0,0-6.8-6.8Z"/><path class="cls-1" d="M27.39,24.65A5.43,5.43,0,1,1,22,30.09h0a5.44,5.44,0,0,1,5.42-5.43m0-1.37a6.8,6.8,0,1,0,6.79,6.81h0A6.8,6.8,0,0,0,27.39,23.28Z"/></g></g></g></g></svg>