<svg enable-background="new 0 0 482 311.9" viewBox="0 0 482 311.9" xmlns="http://www.w3.org/2000/svg"><path d="m372.3 265.9-2.6-2.7 107-107-107-107.1 2.6-2.6 109.7 109.7z" fill="#6cf9cf"/><path d="m272.1 311.9-156-156 1.1-1.1 154.9-154.8 2.1 2.1-153.8 153.9 153.8 153.8zm187.2-155.9-155.9-156-2.1 2.1 153.8 153.9-153.9 153.8 2.1 2.1z" fill="#08555c"/><path d="m246.8 265c-1.1-1.1-1.1-2.8 0-3.9 1.1-1.1 2.8-1.1 3.9 0 1.1 1.1 1.1 2.8 0 3.9-.5.5-1.2.8-2 .8-.6 0-1.3-.3-1.9-.8zm-12-12c-1.1-1.1-1.1-2.8 0-3.9 1.1-1.1 2.8-1.1 3.9 0 1.1 1.1 1.1 2.8 0 3.9-.5.5-1.2.8-2 .8-.6 0-1.3-.3-1.9-.8zm-12-12c-1.1-1.1-1.1-2.8 0-3.9 1.1-1.1 2.8-1.1 3.9 0 1.1 1.1 1.1 2.8 0 3.9-.5.5-1.2.8-2 .8-.7 0-1.4-.3-1.9-.8zm-12-12.1c-1.1-1.1-1.1-2.8 0-3.9 1.1-1.1 2.8-1.1 3.9 0 1.1 1.1 1.1 2.8 0 3.9-.5.5-1.2.8-2 .8-.7 0-1.4-.2-1.9-.8zm-12-12c-1.1-1.1-1.1-2.8 0-3.9 1.1-1.1 2.8-1.1 3.9 0 1.1 1.1 1.1 2.8 0 3.9-.5.5-1.2.8-2 .8-.7 0-1.4-.2-1.9-.8zm-12.1-12c-1.1-1.1-1.1-2.8 0-3.9 1.1-1.1 2.8-1.1 3.9 0 1.1 1.1 1.1 2.8 0 3.9-.5.5-1.2.8-2 .8-.6 0-1.3-.3-1.9-.8zm-12-12c-1.1-1.1-1.1-2.8 0-3.9 1.1-1.1 2.8-1.1 3.9 0 1.1 1.1 1.1 2.8 0 3.9-.5.5-1.2.8-2 .8-.6 0-1.3-.3-1.9-.8zm-12-12.1c-1.1-1.1-1.1-2.8 0-3.9 1.1-1.1 2.8-1.1 3.9 0 1.1 1.1 1.1 2.8 0 3.9-.5.5-1.2.8-1.9.8-.8 0-1.5-.2-2-.8zm-12-12c-1.1-1.1-1.1-2.8 0-3.9 1.1-1.1 2.8-1.1 3.9 0 1.1 1.1 1.1 2.8 0 3.9-.5.5-1.2.8-1.9.8-.8 0-1.5-.2-2-.8zm-12-12c-1.1-1.1-1.1-2.8 0-3.9 1.1-1.1 2.8-1.1 3.9 0 1.1 1.1 1.1 2.8 0 3.9-.5.5-1.2.8-2 .8-.7 0-1.4-.3-1.9-.8zm11.6-12c-1.1-1.1-1.1-2.8 0-3.9 1.1-1.1 2.8-1.1 3.9 0 1.1 1.1 1.1 2.8 0 3.9-.5.5-1.2.8-1.9.8-.7 0-1.4-.3-2-.8zm12-12c-1.1-1.1-1.1-2.8 0-3.9 1.1-1.1 2.8-1.1 3.9 0 1.1 1.1 1.1 2.8 0 3.9-.5.5-1.2.8-1.9.8-.7 0-1.4-.3-2-.8zm12.1-12.1c-1.1-1.1-1.1-2.8 0-3.9 1.1-1.1 2.8-1.1 3.9 0 1.1 1.1 1.1 2.8 0 3.9-.5.5-1.2.8-1.9.8-.8 0-1.5-.2-2-.8zm12-12c-1.1-1.1-1.1-2.8 0-3.9 1.1-1.1 2.8-1.1 3.9 0 1.1 1.1 1.1 2.8 0 3.9-.5.5-1.2.8-2 .8-.7 0-1.4-.2-1.9-.8zm12-12c-1.1-1.1-1.1-2.8 0-3.9 1.1-1.1 2.8-1.1 3.9 0 1.1 1.1 1.1 2.8 0 3.9-.5.5-1.2.8-2 .8-.7 0-1.4-.3-1.9-.8zm12-12c-1.1-1.1-1.1-2.8 0-3.9 1.1-1.1 2.8-1.1 3.9 0 1.1 1.1 1.1 2.8 0 3.9-.5.5-1.2.8-2 .8-.6 0-1.3-.3-1.9-.8zm12-12c-1.1-1.1-1.1-2.8 0-3.9 1.1-1.1 2.8-1.1 3.9 0 1.1 1.1 1.1 2.8 0 3.9-.5.5-1.2.8-2 .8-.6 0-1.3-.3-1.9-.8zm12.1-12.1c-1.1-1.1-1.1-2.8 0-3.9 1.1-1.1 2.8-1.1 3.9 0 1.1 1.1 1.1 2.8 0 3.9-.5.5-1.2.8-2 .8-.7 0-1.4-.2-1.9-.8zm12-12c-1.1-1.1-1.1-2.8 0-3.9 1.1-1.1 2.8-1.1 3.9 0 1.1 1.1 1.1 2.8 0 3.9-.5.5-1.2.8-2 .8-.7 0-1.4-.2-1.9-.8zm-154.6 106.1c0-1.5 1.2-2.8 2.8-2.8 1.5 0 2.8 1.2 2.8 2.8 0 1.5-1.2 2.8-2.8 2.8-1.6-.1-2.8-1.3-2.8-2.8zm-17 0c0-1.5 1.2-2.8 2.8-2.8 1.5 0 2.8 1.2 2.8 2.8 0 1.5-1.2 2.8-2.8 2.8-1.6-.1-2.8-1.3-2.8-2.8zm-17 0c0-1.5 1.2-2.8 2.8-2.8 1.5 0 2.8 1.2 2.8 2.8 0 1.5-1.2 2.8-2.8 2.8-1.6-.1-2.8-1.3-2.8-2.8zm294.9 0c0-1.5 1.2-2.8 2.8-2.8 1.5 0 2.8 1.2 2.8 2.8 0 1.5-1.2 2.8-2.8 2.8-1.6-.1-2.8-1.3-2.8-2.8zm-17 0c0-1.5 1.2-2.8 2.8-2.8 1.5 0 2.8 1.2 2.8 2.8 0 1.5-1.2 2.8-2.8 2.8-1.6-.1-2.8-1.3-2.8-2.8zm-17 0c0-1.5 1.2-2.8 2.8-2.8 1.5 0 2.8 1.2 2.8 2.8 0 1.5-1.2 2.8-2.8 2.8-1.6-.1-2.8-1.3-2.8-2.8zm-17 0c0-1.5 1.2-2.8 2.8-2.8 1.5 0 2.8 1.2 2.8 2.8 0 1.5-1.2 2.8-2.8 2.8-1.6-.1-2.8-1.3-2.8-2.8zm-17 0c0-1.5 1.2-2.8 2.8-2.8 1.5 0 2.8 1.2 2.8 2.8 0 1.5-1.2 2.8-2.8 2.8-1.6-.1-2.8-1.3-2.8-2.8zm-17 0c0-1.5 1.2-2.8 2.8-2.8 1.5 0 2.8 1.2 2.8 2.8 0 1.5-1.2 2.8-2.8 2.8-1.6-.1-2.8-1.3-2.8-2.8zm-17 0c0-1.5 1.2-2.8 2.8-2.8 1.5 0 2.8 1.2 2.8 2.8 0 1.5-1.2 2.8-2.8 2.8-1.6-.1-2.8-1.3-2.8-2.8z" fill="#fff"/><path d="m369.7 219.9v-130.5l65.3 65.3z" fill="#ee2051"/><path d="m40.3 176.6h-40.3c.2-11.1 9.5-20 20.6-19.7 10.8.2 19.5 8.9 19.7 19.7zm-20.3-47c6.4 0 11.5 5.2 11.5 11.5s-5.2 11.5-11.5 11.5-11.5-5.2-11.5-11.5 5.2-11.5 11.5-11.5z" fill="#08555c"/></svg>