<svg xmlns="http://www.w3.org/2000/svg" width="160" height="30.42" viewBox="0 0 160 30.42"><defs><style>.cls-1{fill:#3d95ce;}</style></defs><title>Asset 1</title><g id="Layer_2" data-name="Layer 2"><g id="Layer_1-2" data-name="Layer 1"><path class="cls-1" d="M26.3,0a10.86,10.86,0,0,1,1.57,5.94c0,7.41-6.32,17-11.45,23.78H4.7L0,1.62l10.26-1,2.48,20c2.33-3.78,5.19-9.72,5.19-13.78a11.18,11.18,0,0,0-1-5Z"/><path class="cls-1" d="M39.6,12.37c1.88,0,6.64-.86,6.64-3.56a1.86,1.86,0,0,0-2-1.95C42.35,6.86,39.87,9.13,39.6,12.37Zm-.22,5.35c0,3.3,1.83,4.6,4.27,4.6A17.9,17.9,0,0,0,52.12,20l-1.24,8.43a23,23,0,0,1-9.45,1.89c-8.91,0-12.1-5.4-12.1-12.15,0-8.76,5.19-18,15.88-18C51.1.11,54.39,3.4,54.39,8,54.39,15.4,44.89,17.67,39.38,17.72Z"/><path class="cls-1" d="M84,6.59a27.81,27.81,0,0,1-.33,3.68L80.59,29.72h-10l2.81-17.83c0-.49.22-1.46.22-2,0-1.3-.81-1.62-1.79-1.62a8,8,0,0,0-3.45,1L65.2,29.72h-10L59.75.59h8.69l.11,2.33A15,15,0,0,1,77.14.11C82.21.11,84,2.7,84,6.59Z"/><path class="cls-1" d="M113.66,3.3A14.82,14.82,0,0,1,122.94.11c5.13,0,6.92,2.59,6.92,6.48a27.81,27.81,0,0,1-.33,3.68l-3.07,19.45h-10l2.87-18.21c0-.49.16-1.08.16-1.46,0-1.46-.81-1.78-1.79-1.78a7.59,7.59,0,0,0-3.4,1l-3.18,20.42h-10L104,11.51c.05-.49.16-1.08.16-1.46,0-1.46-.81-1.78-1.78-1.78a8.05,8.05,0,0,0-3.46,1L95.72,29.72h-10L90.27.59h8.59L99.13,3A13.79,13.79,0,0,1,107.44.11C110.58.11,112.63,1.46,113.66,3.3Z"/><path class="cls-1" d="M149.74,11.78c0-2.38-.6-4-2.38-4-3.94,0-4.75,7-4.75,10.54,0,2.7.76,4.38,2.54,4.38C148.88,22.7,149.74,15.34,149.74,11.78Zm-17.28,6.11c0-9.19,4.86-17.78,16-17.78,8.42,0,11.5,5,11.5,11.83,0,9.08-4.8,18.48-16.25,18.48C135.27,30.42,132.46,24.86,132.46,17.89Z"/></g></g></svg>